<svg width="280" height="280" viewBox="0 0 280 280" fill="none" xmlns="http://www.w3.org/2000/svg">
<path d="M236 124C236 146.644 212.644 162 190 162C167.356 162 154 146.644 154 124C154 101.356 167.356 75.5 190 75.5C212.644 75.5 236 101.356 236 124Z" fill="#111827"/>
<path d="M126 124C126 146.644 112.644 162 90 162C67.3563 162 44 146.644 44 124C44 101.356 67.3563 75.5 90 75.5C112.644 75.5 126 101.356 126 124Z" fill="#111827"/>
<path d="M154 168C154 171.866 143.866 172 140 172C136.134 172 126 171.866 126 168C126 164.134 136.134 152.5 140 152.5C143.866 152.5 154 164.134 154 168Z" fill="#111827"/>
<path fill-rule="evenodd" clip-rule="evenodd" d="M280 140C280 217.32 217.32 280 140 280C62.6801 280 0 217.32 0 140C0 62.6801 62.6801 0 140 0C217.32 0 280 62.6801 280 140ZM140 20C70.9644 20 20.5 70.9644 20.5 140C20.5 173.241 37.9533 182.469 64.658 193.206C71.305 195.878 78.1843 198.644 85 201.897V225C85 227.761 87.2386 230 90 230H114C116.456 230 118.498 228.229 118.92 225.895C118.973 225.605 119 225.306 119 225V202H123V225C123 227.761 125.239 230 128 230H152C154.761 230 157 227.761 157 225V202H161V225C161 225.251 161.018 225.497 161.054 225.738C161.411 228.15 163.489 230 166 230H190C192.761 230 195 227.761 195 225V201.681C201.007 198.82 207.064 196.342 212.967 193.976C213.811 193.638 214.651 193.302 215.487 192.967C242.13 182.32 260 173.181 260 140C260 70.9644 209.036 20 140 20Z" fill="#111827"/>
<path fill-rule="evenodd" clip-rule="evenodd" d="M20.5 140C20.5 70.9644 70.9644 20 140 20C209.036 20 260 70.9644 260 140C260 173.181 242.13 182.32 215.487 192.967C214.651 193.302 213.811 193.638 212.967 193.976C207.064 196.342 201.007 198.82 195 201.681V225C195 227.761 192.761 230 190 230H166C163.489 230 161.411 228.15 161.054 225.738C161.018 225.497 161 225.251 161 225V202H157V225C157 227.761 154.761 230 152 230H128C125.239 230 123 227.761 123 225V202H119V225C119 225.306 118.973 225.605 118.92 225.895C118.498 228.229 116.456 230 114 230H90C87.2386 230 85 227.761 85 225V201.897C78.1843 198.644 71.305 195.878 64.658 193.206C37.9533 182.469 20.5 173.241 20.5 140ZM90 162C112.644 162 126 146.644 126 124C126 101.356 112.644 75.5 90 75.5C67.3563 75.5 44 101.356 44 124C44 146.644 67.3563 162 90 162ZM190 162C212.644 162 236 146.644 236 124C236 101.356 212.644 75.5 190 75.5C167.356 75.5 154 101.356 154 124C154 146.644 167.356 162 190 162ZM140 172C143.866 172 154 171.866 154 168C154 164.134 143.866 152.5 140 152.5C136.134 152.5 126 164.134 126 168C126 171.866 136.134 172 140 172Z" fill="white"/>
</svg>
