<svg width="472" height="545" viewBox="0 0 472 545" fill="none" xmlns="http://www.w3.org/2000/svg">
<path fill-rule="evenodd" clip-rule="evenodd" d="M55.0031 123.129L233.003 51.2108C234.926 50.4341 237.074 50.4341 238.997 51.2108L416.997 123.129C420.021 124.35 422 127.285 422 130.546V361.548C422 364.158 420.727 366.604 418.588 368.101L276.739 467.41L240.596 492.775C237.838 494.71 234.162 494.71 231.404 492.775L195.261 467.41L53.4118 368.101C51.2735 366.604 50 364.158 50 361.548V130.546C50 127.285 51.9795 124.35 55.0031 123.129ZM269.902 221.047L236 125L202.098 221.047L92.3905 221.047L181.146 280.407L147.244 376.453L236 317.093L324.756 376.453L290.854 280.407L379.61 221.047L269.902 221.047Z" fill="url(#paint0_linear_39_46)"/>
<path d="M236 125L269.902 221.047L379.61 221.047L290.854 280.407L324.756 376.453L236 317.093L147.244 376.453L181.146 280.407L92.3905 221.047L202.098 221.047L236 125Z" fill="url(#paint1_linear_39_46)"/>
<path fill-rule="evenodd" clip-rule="evenodd" d="M5.09433 90.0141L233.094 1.1327C234.963 0.404251 237.037 0.404254 238.906 1.1327L466.906 90.0141C469.977 91.2115 472 94.1708 472 97.4677V382.25C472 384.907 470.68 387.391 468.478 388.879L287.69 511L240.485 542.963C237.776 544.797 234.224 544.797 231.515 542.963L184.31 511L3.52198 388.879C1.31975 387.391 0 384.907 0 382.25V97.4677C0 94.1708 2.02257 91.2115 5.09433 90.0141ZM233.003 51.2108L55.0031 123.129C51.9795 124.35 50 127.285 50 130.546V361.548C50 364.158 51.2735 366.604 53.4118 368.101L195.261 467.41L231.404 492.775C234.162 494.71 237.838 494.71 240.596 492.775L276.739 467.41L418.588 368.101C420.727 366.604 422 364.158 422 361.548V130.546C422 127.285 420.021 124.35 416.997 123.129L238.997 51.2108C237.074 50.4341 234.926 50.4341 233.003 51.2108Z" fill="url(#paint2_linear_39_46)"/>
<defs>
<linearGradient id="paint0_linear_39_46" x1="-28.5" y1="20.5" x2="494.5" y2="495" gradientUnits="userSpaceOnUse">
<stop stop-color="#0891B2"/>
<stop offset="0.5" stop-color="#7DD3FC"/>
<stop offset="1" stop-color="#6366F1"/>
</linearGradient>
<linearGradient id="paint1_linear_39_46" x1="27" y1="53" x2="440.5" y2="397" gradientUnits="userSpaceOnUse">
<stop stop-color="#290731"/>
<stop offset="0.5" stop-color="#2A173E"/>
<stop offset="1" stop-color="#917798"/>
</linearGradient>
<linearGradient id="paint2_linear_39_46" x1="31" y1="26" x2="483" y2="455.5" gradientUnits="userSpaceOnUse">
<stop stop-color="#290731"/>
<stop offset="0.5" stop-color="#2A173E"/>
<stop offset="1" stop-color="#6B62A3"/>
</linearGradient>
</defs>
</svg>
