<svg width="428" height="447" viewBox="0 0 428 447" fill="none" xmlns="http://www.w3.org/2000/svg">
<path d="M181.5 174L211.5 197.5V113L181.5 174Z" fill="url(#paint0_linear_10_2)"/>
<path d="M130.5 329L211.5 350V297.5L130.5 329Z" fill="url(#paint1_linear_10_2)"/>
<path d="M130.5 329L163.5 381L211.5 350L130.5 329Z" fill="url(#paint2_linear_10_2)"/>
<path d="M211.5 350H289.5L211.5 297.5V350Z" fill="url(#paint3_linear_10_2)"/>
<path d="M245.5 187L271.5 164.5L264 100.5L211.5 113L245.5 187Z" fill="url(#paint4_linear_10_2)"/>
<path d="M80 164.5H143.5L130.5 95.5L40 56L80 164.5Z" fill="url(#paint5_linear_10_2)"/>
<path d="M62.625 264.584L85.25 211.669L42.875 188.084L62.625 264.584Z" fill="url(#paint6_linear_10_2)"/>
<path d="M163.5 381L130.5 329V297.5L107.875 302.5L85.25 307.5L40 317.5L102 350L67.5 424.5L163.5 381Z" fill="url(#paint7_linear_10_2)"/>
<path d="M334.35 265L289.5 350L341.5 362.5L334.35 265Z" fill="url(#paint8_linear_10_2)"/>
<path d="M245.5 33.5L264 100.5L327.5 164.5L341.5 0.5L245.5 33.5Z" fill="url(#paint9_linear_10_2)"/>
<path d="M327.5 164.5V197.5L334.35 265L427.5 197.5L327.5 164.5Z" fill="url(#paint10_linear_10_2)"/>
<path d="M100.587 273L115.924 238.5L62.625 264.584L100.587 273Z" fill="url(#paint11_linear_10_2)"/>
<path d="M143.5 257L111 226L115.924 238.5L130.5 275.5L143.5 257Z" fill="url(#paint12_linear_10_2)"/>
<path d="M211.5 197.5L181.5 174L143.5 164.5H80L111 226L143.5 257L130.5 275.5V297.5V329L211.5 297.5L289.5 350V297.5V265L327.5 197.5V164.5H271.5L245.5 187L211.5 197.5Z" fill="#290731"/>
<path d="M289.5 297.5V350L334.35 265L289.5 297.5Z" fill="url(#paint13_linear_10_2)"/>
<path d="M327.5 197.5L289.5 265H334.35L327.5 197.5Z" fill="#2A173E"/>
<path d="M130.5 95.5L211.5 113L264 100.5L245.5 33.5L130.5 95.5Z" fill="#2A173E"/>
<path d="M289.5 350L252 381L313.5 446.5L289.5 350Z" fill="url(#paint14_linear_10_2)"/>
<path d="M211.5 409L163.5 381V446.5L211.5 409Z" fill="#2A173E"/>
<path d="M334.35 265L341.5 362.5L365.5 297.5L334.35 265Z" fill="#2A173E"/>
<path d="M100.587 273L85.25 307.5L107.875 302.5L100.587 273Z" fill="url(#paint15_linear_10_2)"/>
<path d="M40 317.5L85.25 307.5L100.587 273L62.625 264.584L40 317.5Z" fill="#2A173E"/>
<path d="M111 226L80 164.5H0.5L42.875 188.084L85.25 211.669L111 226Z" fill="url(#paint16_linear_10_2)"/>
<path d="M252 381L211.5 350V409L252 381Z" fill="url(#paint17_linear_10_2)"/>
<defs>
<linearGradient id="paint0_linear_10_2" x1="214" y1="0.5" x2="214" y2="446.5" gradientUnits="userSpaceOnUse">
<stop stop-color="#5F4D64"/>
<stop offset="1" stop-color="#532C5C"/>
</linearGradient>
<linearGradient id="paint1_linear_10_2" x1="214" y1="0.5" x2="214" y2="446.5" gradientUnits="userSpaceOnUse">
<stop stop-color="#5F4D64"/>
<stop offset="1" stop-color="#532C5C"/>
</linearGradient>
<linearGradient id="paint2_linear_10_2" x1="214" y1="0.5" x2="214" y2="446.5" gradientUnits="userSpaceOnUse">
<stop stop-color="#3B1E42"/>
<stop offset="1" stop-color="#87678E"/>
</linearGradient>
<linearGradient id="paint3_linear_10_2" x1="214" y1="0.5" x2="214" y2="446.5" gradientUnits="userSpaceOnUse">
<stop stop-color="#3B1E42"/>
<stop offset="1" stop-color="#87678E"/>
</linearGradient>
<linearGradient id="paint4_linear_10_2" x1="214" y1="0.5" x2="214" y2="446.5" gradientUnits="userSpaceOnUse">
<stop stop-color="#4F335C"/>
<stop offset="1" stop-color="#7C6092"/>
</linearGradient>
<linearGradient id="paint5_linear_10_2" x1="214" y1="0.5" x2="214" y2="446.5" gradientUnits="userSpaceOnUse">
<stop stop-color="#4F335C"/>
<stop offset="1" stop-color="#7C6092"/>
</linearGradient>
<linearGradient id="paint6_linear_10_2" x1="214" y1="0.5" x2="214" y2="446.5" gradientUnits="userSpaceOnUse">
<stop stop-color="#5F4D64"/>
<stop offset="1" stop-color="#532C5C"/>
</linearGradient>
<linearGradient id="paint7_linear_10_2" x1="214" y1="0.5" x2="214" y2="446.5" gradientUnits="userSpaceOnUse">
<stop stop-color="#5F4D64"/>
<stop offset="1" stop-color="#532C5C"/>
</linearGradient>
<linearGradient id="paint8_linear_10_2" x1="214" y1="0.5" x2="214" y2="446.5" gradientUnits="userSpaceOnUse">
<stop stop-color="#5F4D64"/>
<stop offset="1" stop-color="#532C5C"/>
</linearGradient>
<linearGradient id="paint9_linear_10_2" x1="214" y1="0.5" x2="214" y2="446.5" gradientUnits="userSpaceOnUse">
<stop stop-color="#5F4D64"/>
<stop offset="1" stop-color="#532C5C"/>
</linearGradient>
<linearGradient id="paint10_linear_10_2" x1="214" y1="0.5" x2="214" y2="446.5" gradientUnits="userSpaceOnUse">
<stop stop-color="#5F4D64"/>
<stop offset="1" stop-color="#532C5C"/>
</linearGradient>
<linearGradient id="paint11_linear_10_2" x1="214" y1="0.5" x2="214" y2="446.5" gradientUnits="userSpaceOnUse">
<stop stop-color="#5F4D64"/>
<stop offset="1" stop-color="#532C5C"/>
</linearGradient>
<linearGradient id="paint12_linear_10_2" x1="214" y1="0.5" x2="214" y2="446.5" gradientUnits="userSpaceOnUse">
<stop stop-color="#5F4D64"/>
<stop offset="1" stop-color="#532C5C"/>
</linearGradient>
<linearGradient id="paint13_linear_10_2" x1="214" y1="0.5" x2="214" y2="446.5" gradientUnits="userSpaceOnUse">
<stop stop-color="#3B1E42"/>
<stop offset="1" stop-color="#87678E"/>
</linearGradient>
<linearGradient id="paint14_linear_10_2" x1="214" y1="0.5" x2="214" y2="446.5" gradientUnits="userSpaceOnUse">
<stop stop-color="#5F4D64"/>
<stop offset="1" stop-color="#532C5C"/>
</linearGradient>
<linearGradient id="paint15_linear_10_2" x1="214" y1="0.5" x2="214" y2="446.5" gradientUnits="userSpaceOnUse">
<stop stop-color="#3B1E42"/>
<stop offset="1" stop-color="#87678E"/>
</linearGradient>
<linearGradient id="paint16_linear_10_2" x1="214" y1="0.5" x2="214" y2="446.5" gradientUnits="userSpaceOnUse">
<stop stop-color="#5F4D64"/>
<stop offset="1" stop-color="#532C5C"/>
</linearGradient>
<linearGradient id="paint17_linear_10_2" x1="214" y1="0.5" x2="214" y2="446.5" gradientUnits="userSpaceOnUse">
<stop stop-color="#5F4D64"/>
<stop offset="1" stop-color="#532C5C"/>
</linearGradient>
</defs>
</svg>
